HIERARCHY
ROOT Hips
{
  OFFSET -60.1635 97.0386 362.774
  CHANNELS 6 Xposition Yposition Zposition Zrotation Xrotation Yrotation
  JOINT RightUpLeg
  {
    OFFSET -8.9458 -8.66707 0.101652
    CHANNELS 3 Zrotation Xrotation Yrotation
    JOINT RightLeg
    {
      OFFSET 0 -44.4227 1.3727
      CHANNELS 3 Zrotation Xrotation Yrotation
      JOINT RightFoot
      {
        OFFSET 0.253549 -42.0924 -1.46059
        CHANNELS 3 Zrotation Xrotation Yrotation
        JOINT RightToes
        {
          OFFSET 0.04 -4.41509 8.4991
          CHANNELS 3 Zrotation Xrotation Yrotation
          End Site
          {
            OFFSET -0.08 -0.137448 9.77979
          }
        }
      }
    }
  }
  JOINT Spine
  {
    OFFSET 0 11.8905 0
    CHANNELS 3 Zrotation Xrotation Yrotation
    JOINT Spine1
    {
      OFFSET 0 25.6574 0.127663
      CHANNELS 3 Zrotation Xrotation Yrotation
      JOINT HEad
      {
        OFFSET 0 8.73416 0.011341
        CHANNELS 3 Zrotation Xrotation Yrotation
        End Site
        {
          OFFSET -0.29 12.7742 2.51395
        }
      }
      JOINT LeftShoulder1
      {
        OFFSET 8.99 -0.362252 -0.22
        CHANNELS 3 Zrotation Xrotation Yrotation
        JOINT LeftArm
        {
          OFFSET 10.2827 -0.00338 0.322123
          CHANNELS 3 Zrotation Xrotation Yrotation
          JOINT LeftForeArm
          {
            OFFSET 32.7669 0.099144 -1.42434
            CHANNELS 3 Zrotation Xrotation Yrotation
            JOINT LeftHand
            {
              OFFSET 27.5643 0.085362 1.02216
              CHANNELS 3 Zrotation Xrotation Yrotation
              End Site
              {
                OFFSET 16.7443 -0.6 1.50291
              }
            }
          }
        }
      }
      JOINT RightShoulder
      {
        OFFSET -8.99 -0.362252 -0.22
        CHANNELS 3 Zrotation Xrotation Yrotation
        JOINT RightArm
        {
          OFFSET -10.2827 -0.00338 0.322123
          CHANNELS 3 Zrotation Xrotation Yrotation
          JOINT RightForeArm
          {
            OFFSET -32.8971 0.099144 -1.42434
            CHANNELS 3 Zrotation Xrotation Yrotation
            JOINT RightHand
            {
              OFFSET -27.4921 0.085362 1.02216
              CHANNELS 3 Zrotation Xrotation Yrotation
              End Site
              {
                OFFSET -16.6312 -0.6 1.50291
              }
            }
          }
        }
      }
    }
  }
  JOINT LeftUpLeg
  {
    OFFSET 8.9458 -8.66707 0.101652
    CHANNELS 3 Zrotation Xrotation Yrotation
    JOINT LeftLeg
    {
      OFFSET 0 -44.4227 1.3727
      CHANNELS 3 Zrotation Xrotation Yrotation
      JOINT LeftFoot
      {
        OFFSET -0.253549 -42.0924 -1.46059
        CHANNELS 3 Zrotation Xrotation Yrotation
        JOINT LeftToes
        {
          OFFSET -0.04 -4.41509 8.4991
          CHANNELS 3 Zrotation Xrotation Yrotation
          End Site
          {
            OFFSET 0.08 -0.047448 9.77979
          }
        }
      }
    }
  }
}
MOTION
Frames:	17
Frame Time:	0.0166667
-53.1892 96.7175 363.457 18.7636 -0.182696 118.323 1.51595 -4.45181 8.13442 -3.00625 32.4956 -3.7137 4.90438 -2.13102 0.241483 0.0462048 0.000533403 0.662642 15.2067 10.0938 4.31215 0.0285038 0.0669697 -0.0817745 34.9347 39.597 8.14498 -1.59028e-015 7.95139e-016 -6.36111e-015 -117.813 -46.6836 -113.212 -65.2752 52.5213 -53.2712 3.60463 12.0836 -7.0164 25.4289 2.71047 0.578808 94.6115 -27.8773 85.1473 47.1901 55.1616 58.3771 -3.40246 20.4657 1.42043 7.32048 -31.5512 17.3771 7.46992 43.8007 -0.437942 5.92731 -1.34921 0.765155 -1.18446e-009 1.5602e-007 -4.87131e-009 
-55.3266 96.8101 363.173 19.6203 -0.359188 118.501 3.45128 -4.06809 9.84365 -3.65901 32.2489 -5.51717 -5.02238 -2.62605 -0.28101 0.0462048 0.000533403 0.662642 17.0344 12.6831 1.57354 0.0167734 0.0596809 -0.086456 32.6513 39.5846 11.0478 -7.95139e-016 7.95139e-016 6.36111e-015 -118.593 -46.0131 -113.058 -63.3705 52.6691 -55.0603 -1.13395 9.22484 -5.19655 24.7404 2.39096 1.80487 93.7 -30.1335 83.5312 46.3724 54.255 59.9785 -2.29935 20.3924 3.1319 10.1449 -33.2287 19.0673 14.9357 50.3428 -9.14407 -6.19807 -1.29166 -0.876104 -1.18446e-009 1.5602e-007 -4.87132e-009 
-57.6332 96.9091 362.953 20.3374 -0.507025 118.504 5.01533 -3.83968 10.1952 -4.74099 31.6786 -5.71544 -15.1483 -2.84109 -0.875489 0.0462048 0.000533403 0.662642 18.9946 15.5801 -2.09169 0.00634256 0.0491306 -0.0853771 28.9777 39.3927 15.5612 7.95139e-016 0 -0 -121.163 -46.3738 -115.314 -62.3814 52.6792 -56.1909 2.80678 14.2849 -5.06221 23.6804 1.9825 3.81775 92.8852 -31.0512 82.3499 45.9677 53.8973 61.2074 -7.59975 25.1504 -12.1978 11.5483 -34.58 19.2082 25.1219 55.0803 -19.9026 -5.88787 -0.438709 -0.513049 -1.18446e-009 1.5602e-007 -4.87132e-009 
-60.1635 97.0386 362.774 20.8539 -0.624599 118.295 6.00665 -3.70327 9.42415 -5.96239 30.4105 -4.5394 -25.3763 -2.69046 -1.41111 0.0462048 0.000533403 0.662642 20.9913 18.5741 -6.54805 -0.00164632 0.03822 -0.0827307 23.0769 37.5867 22.0502 2.38542e-015 3.97569e-016 -0 -125.339 -47.7194 -119.655 -62.4677 52.7337 -56.8883 0.18844 12.5267 -3.7023 22.3901 1.53191 6.62175 92.1764 -31.2902 81.5232 45.7441 53.7668 62.1639 -2.70109 21.1324 1.45025 12.881 -35.1086 18.0805 36.6109 57.7434 -32.2762 -12.9756 -0.0440963 -1.01278 -1.18446e-009 1.5602e-007 -4.87132e-009 
-62.9495 97.6959 362.588 19.9977 -0.855528 116.106 4.50707 -6.46941 10.0291 -7.53427 31.8882 -1.97401 -0.743211 -4.14392 -0.638787 0.0462048 0.000533403 0.662642 21.7671 21.1786 -9.55157 -0.00853621 0.0310296 -0.0811423 16.1489 33.8992 29.6219 1.59028e-015 -2.38542e-015 -0 -130.806 -49.3531 -125.76 -62.8701 52.7645 -57.2552 2.78707 15.5307 -3.54895 20.9572 1.05829 9.90048 91.5751 -31.0142 81.0091 41.5882 53.5279 61.7095 -7.41539 29.0716 -20.458 13.9656 -34.7416 17.9166 40.6546 57.7728 -38.6981 -18.803 0.931449 -1.0721 -1.18447e-009 1.5602e-007 -4.87131e-009 
-65.6864 98.0056 362.463 18.0422 -1.19365 112.254 2.1181 -8.95981 11.0571 -8.94904 30.2752 1.27252 23.5811 -3.92456 0.984644 0.0462048 0.000533403 0.662642 21.0006 22.8722 -9.90609 -0.0333086 -0.0239046 0.019335 10.4255 28.6184 35.7328 -1.59028e-015 0 -6.36111e-015 -135.446 -50.437 -131.145 -63.3315 52.88 -57.2808 1.57832 14.6337 -2.56617 19.8192 0.763488 12.3264 89.1493 -34.0745 80.0082 42.9582 52.8185 62.6249 -9.22428 20.3624 -4.7794 13.7963 -35.0504 18.5369 45.3266 57.8224 -47.1461 -8.89488 1.86391 -0.265221 -1.18446e-009 1.5602e-007 -4.87131e-009 
-68.4734 98.5093 362.282 15.1769 -1.57303 106.994 2.31784 -12.867 12.157 -8.8351 29.6974 0.317282 12.4696 -5.31844 0.866335 0.0462048 0.000533403 0.662642 18.6797 23.4584 -8.14045 -0.0307076 -0.0157377 0.0322069 5.90351 22.2685 40.8735 6.62086e-032 2.38542e-015 -1.59028e-015 -139.504 -51.5844 -136.296 -63.833 52.9346 -57.0778 3.43749 16.5225 -2.52316 18.5795 2.62412 4.48123 89.0676 -24.899 81.9965 43.5505 52.4357 62.7894 -7.97791 24.1777 -11.4341 13.5472 -34.4612 19.7296 43.7226 56.9746 -50.0764 1.53968 2.45431 -0.227146 -1.18447e-009 1.5602e-007 -4.87131e-009 
-71.1333 98.8056 362.05 11.533 -1.8817 100.55 1.32041 -17.4213 13.5109 -7.32864 28.0427 -2.72088 17.8821 -4.63531 0.932214 0.0462048 0.000533403 0.662642 15.2891 22.7606 -4.66628 -0.0225751 -0.0124172 0.0316606 3.03139 16.6485 45.2091 3.18055e-015 0 -1.59028e-015 -142.999 -52.8215 -141.077 -64.3229 52.9616 -56.6925 3.02165 16.11 -1.94107 18.0569 3.08723 7.4558 88.183 -25.9278 81.9406 44.0091 52.3259 62.9138 -8.68475 19.7178 -2.66668 13.4543 -33.5652 21.2897 36.1902 55.8039 -46.1075 13.3493 2.31928 -0.37746 -1.18446e-009 1.5602e-007 -4.87131e-009 
-73.7044 99.0961 361.694 8.45898 -1.93199 94.9053 1.3223 -21.6758 13.1837 -5.66474 27.3876 -6.72953 10.7974 -6.03845 0.812165 0.0462048 0.000533403 0.662642 12.4355 21.7415 -1.79329 -0.0192277 -0.00998929 0.0254571 1.25744 11.5574 48.7196 3.18055e-015 -5.96354e-016 -0 -146.598 -53.9621 -145.934 -65.217 52.7086 -56.2806 4.30083 17.2554 -1.83668 17.524 3.63173 9.6342 87.6765 -26.2443 82.0852 44.3811 52.3001 62.9346 -7.93631 22.2623 -7.02882 12.4466 -31.5125 20.8209 25.8722 52.5774 -38.2789 25.5276 2.07028 -0.482794 -1.18447e-009 1.5602e-007 -4.87131e-009 
-76.1647 99.2149 361.225 5.86616 -1.79893 89.9817 0.343699 -25.5146 11.131 -4.43273 25.9811 -8.46188 14.1767 -5.70029 0.879921 0.0462048 0.000533403 0.662642 10.0361 20.5363 0.523602 -0.0192294 -0.00794398 0.0199086 0.225713 7.01822 51.6667 -1.37935e-032 -1.98785e-015 -3.97569e-016 -149.752 -54.7048 -150.135 -65.9566 52.4915 -55.8208 4.16876 16.9887 -1.3452 16.9575 4.19453 11.0822 87.4456 -26.0971 82.398 44.7854 52.3367 63.0791 -8.21623 19.9627 -1.96567 10.9736 -28.6659 18.8125 16.5166 46.9284 -30.2254 37.5219 1.91505 -0.533327 -1.18446e-009 1.5602e-007 -4.87131e-009 
-78.5035 99.2551 360.653 3.7118 -1.53897 85.7353 -0.411606 -29.0604 7.62795 -3.40234 26.1717 -6.94262 10.9672 -6.52178 0.857796 0.0462048 0.000533403 0.662642 8.02233 19.2491 2.33997 -0.0192303 -0.00589868 0.0177739 -0.313066 3.05341 54.1624 1.59028e-015 -4.41053e-015 7.45443e-016 -149.574 -52.1923 -148.971 -64.4397 55.0053 -54.4361 4.8306 17.5413 -1.04591 16.4 4.76051 12.1158 87.3823 -25.8566 82.8435 45.1832 52.3394 63.1791 -7.63516 21.4874 -4.79816 9.35728 -24.8763 15.659 9.4221 38.6972 -23.2909 49.1395 2.17281 -0.826627 -1.18447e-009 1.5602e-007 -4.87131e-009 
-80.6411 99.148 360.031 1.96462 -1.19609 82.1452 -2.10661 -32.1682 2.44574 -2.77555 28.7436 -3.41717 11.3664 -6.40728 0.889589 0.0462048 0.000533403 0.662642 6.33309 17.9789 3.68007 -0.0192303 -0.00589868 0.0177739 -0.549686 -0.361468 56.2781 -1.59028e-015 1.09332e-015 3.97569e-016 -150.369 -50.8766 -149.308 -64.0665 56.1874 -53.4066 4.5662 17.1963 -0.543703 15.9097 5.32377 12.7644 87.4061 -25.5751 83.3823 45.6178 52.2997 63.3129 -7.82027 20.1177 -1.82181 7.91721 -20.0279 11.7222 4.69883 28.1112 -17.7433 60.4356 2.89453 -1.64442 -1.18446e-009 1.5602e-007 -4.87131e-009 
-82.7329 100.091 359.517 0.605809 -0.803036 79.2478 -3.70097 -32.4908 -2.82141 -2.2924 27.5895 0.036452 11.474 -4.08498 0.649206 0.0462048 0.000533403 0.662642 4.92289 16.8036 4.52107 -0.0192303 -0.00589868 0.0177739 -0.632059 -3.25126 58.039 1.59028e-015 -1.68967e-015 7.95139e-016 -151.483 -50.2985 -150.025 -64.3923 56.7053 -52.523 4.71246 17.3216 -0.106284 15.5619 5.9152 13.1888 87.4496 -25.4009 83.946 46.0667 52.2117 63.3876 -7.48039 20.7848 -3.55355 8.85176 -20.1934 8.47291 3.97426 28.7217 -10.0376 34.7643 0.814377 0.609526 -1.18446e-009 1.5602e-007 -4.87131e-009 
-84.5638 100.515 359.062 -0.381082 -0.384625 77.0689 -4.97712 -33.9284 -7.88848 -2.65743 29.1688 4.36414 11.8975 -2.82571 0.535004 0.0462048 0.000533403 0.662642 3.74028 15.7782 4.85989 -0.0192303 -0.00589868 0.0177739 -0.670938 -5.63573 59.4502 0 2.18663e-015 -0 -152.578 -50.1884 -150.42 -69.635 52.9307 -48.0862 3.04904 21.6599 0.145089 15.3802 6.56107 13.4537 87.5036 -25.3919 84.4592 46.5561 52.1248 63.4732 -7.67051 19.7448 -1.6826 9.64444 -18.9649 5.15965 3.09102 28.7642 -1.1141 16.0558 -0.864913 0.394073 -1.18446e-009 1.5602e-007 -4.87131e-009 
-86.2016 100.635 358.7 -1.01112 0.0460541 75.6032 -6.20516 -35.9636 -12.8092 -3.94944 32.0764 9.43225 12.5223 -2.06456 0.4885 0.0462048 0.000533403 0.662642 2.73647 14.9197 4.73619 -0.0192303 -0.00589868 0.0177739 -1.99952 -6.80181 59.7356 -2.38542e-015 2.18663e-015 -3.18055e-015 -152.11 -50.153 -145.349 -69.4981 54.525 -48.5408 9.46883 6.46 2.44364 15.3579 7.27908 13.6439 87.5673 -25.612 84.8333 47.0636 52.0873 63.5367 -7.46534 19.8967 -2.58579 9.97518 -16.9822 1.78038 2.1933 27.3984 7.31642 3.59167 -1.90757 0.17692 -1.18446e-009 1.5602e-007 -4.87131e-009 
-87.6681 100.512 358.449 -1.31108 0.459273 74.7598 -7.71576 -38.1004 -16.5427 -5.24922 35.6141 13.6752 13.3718 -1.6085 0.484337 0.0462048 0.000533403 0.662642 1.86101 14.2433 4.25889 -0.0192303 -0.00589868 0.0177739 -4.37774 -6.66366 59.1462 7.95139e-016 -2.18663e-015 -1.59028e-015 -152.201 -50.6642 -142.341 -69.6368 55.4099 -48.9352 2.70364 23.0196 1.20849 15.44 8.04504 13.7554 87.6782 -26.0101 85.0203 47.5994 52.1426 63.6279 -7.53083 19.1343 -1.28063 9.4747 -15.0586 -0.435277 1.52468 25.8714 12.9804 5.77696 -2.8194 0.269094 -1.18447e-009 1.5602e-007 -4.87131e-009 
-89.0235 100.303 358.323 -1.32114 0.833826 74.4305 -9.21814 -39.7578 -18.9911 -6.4088 38.8379 16.7773 14.5279 -1.17088 0.491654 0.0462048 0.000533403 0.662642 1.07024 13.7481 3.54258 -0.0192303 -0.00589868 0.0177739 -6.55988 -6.26782 58.4699 -1.59028e-015 -2.18663e-015 4.77083e-015 -152.502 -51.7024 -140.484 -69.8331 55.7316 -49.4079 6.70151 13.6189 2.483 15.5748 8.81906 13.7796 87.8617 -26.5026 85.0181 48.1561 52.2917 63.7129 -7.30901 19.1327 -1.64021 9.56966 -13.6924 -1.53209 1.0121 25.1685 16.2217 1.63885 -3.31564 0.0707465 -1.18446e-009 1.5602e-007 -4.87131e-009 
